<svg width="80" height="80" viewBox="0 0 80 80" fill="none" xmlns="http://www.w3.org/2000/svg">
<g clip-path="url(#clip0_28_1559)">
<mask id="mask0_28_1559" style="mask-type:luminance" maskUnits="userSpaceOnUse" x="0" y="0" width="80" height="80">
<path d="M80 0H0V80H80V0Z" fill="white"/>
</mask>
<g mask="url(#mask0_28_1559)">
<path d="M21.4794 29.4009C19.5811 29.4009 17.8819 28.1588 17.3312 26.2604C16.675 23.9637 17.9991 21.5614 20.2959 20.8935C24.491 19.6865 28.1588 17.2609 30.9126 13.8743C31.4516 13.2064 32.4359 13.1009 33.1156 13.6517C33.7835 14.1907 33.889 15.175 33.3382 15.8547C30.1743 19.7334 25.9675 22.5223 21.163 23.9051C20.5185 24.0926 20.1553 24.7605 20.331 25.405C20.5068 26.0026 21.1162 26.3776 21.7138 26.2604C21.7489 26.2604 21.7841 26.2487 21.831 26.237C23.9754 25.6159 26.0378 24.7371 27.9596 23.6121C28.7095 23.1785 29.6587 23.4246 30.0923 24.1746C30.5259 24.9246 30.2798 25.8737 29.5298 26.3073C27.3854 27.5611 25.0886 28.5455 22.6864 29.2368C22.5575 29.272 22.4286 29.3072 22.288 29.3306C22.0067 29.3892 21.7372 29.4126 21.4677 29.4126L21.4794 29.4009Z" fill="#010B29"/>
<path d="M40.0175 33.4789H26.94C26.4596 33.4789 26.0026 33.2562 25.7096 32.8695C25.4167 32.4828 25.3112 31.9907 25.4284 31.522L29.143 17.2258C30.0805 13.64 33.3147 11.144 37.0177 11.144C40.7206 11.144 41.4237 12.0698 42.9705 13.7455C44.9626 15.8899 48.1031 16.511 50.5873 15.2571C51.3138 14.8939 51.9935 14.4486 52.6146 13.933L53.0364 13.5814C53.9504 12.8197 55.0988 12.4799 56.2823 12.6088C57.4659 12.7377 58.5088 13.3236 59.2353 14.2728C60.6649 16.1243 60.3603 18.7726 58.5205 20.2959L58.1455 20.6006C54.6652 23.4833 50.2709 25.077 45.7594 25.077C41.2479 25.077 44.6462 25.0535 44.0837 25.0066L41.4823 32.4477C41.2596 33.0688 40.6737 33.4906 40.0058 33.4906L40.0175 33.4789ZM28.9556 30.3501H38.9043L41.5526 22.7802C41.7987 22.0654 42.5252 21.6318 43.2635 21.749C44.0954 21.8779 44.9392 21.9482 45.7594 21.9482C49.5444 21.9482 53.2356 20.6123 56.1535 18.1867L56.5284 17.882C57.0557 17.4484 57.1612 16.675 56.7628 16.1711C56.5636 15.9133 56.2706 15.7376 55.9425 15.7024C55.6144 15.6673 55.2863 15.761 55.0402 15.9719L54.6184 16.3235C53.8098 16.9914 52.931 17.5656 52.0052 18.0343C50.1303 18.9718 48.0445 19.253 45.9704 18.8312C43.9665 18.4327 42.0916 17.3664 40.6855 15.8548C39.7246 14.8236 38.4238 14.2611 37.0177 14.2611C34.7326 14.2611 32.7405 15.7962 32.1663 18.0109L28.9556 30.3501Z" fill="#010B29"/>
<path d="M25.5222 80C25.1237 80 24.7253 79.8477 24.4207 79.543L19.9443 75.0667C19.6514 74.7737 19.4873 74.3753 19.4873 73.9652C19.4873 73.555 19.6514 73.1566 19.9443 72.8637L50.7983 42.0097C51.0912 41.7168 51.4896 41.5527 51.8998 41.5527C52.3099 41.5527 52.7083 41.7168 53.0013 42.0097L58.5323 47.5407L65.6804 40.3926L63.864 38.5763C63.4539 38.1661 63.3016 37.5685 63.4773 37.0178C63.6414 36.467 64.0984 36.0569 64.6609 35.9397L78.1251 33.2328C78.6407 33.1273 79.168 33.2914 79.543 33.6546C79.9179 34.0296 80.0703 34.5569 79.9648 35.0725L77.2579 48.5367C77.1407 49.0992 76.7306 49.5562 76.1798 49.7203C75.6291 49.8843 75.0315 49.732 74.6213 49.3336L72.3832 47.0954L59.6455 59.8331C59.0362 60.4424 58.0518 60.4424 57.4308 59.8331L51.8998 54.3021L44.0955 62.1064C43.4861 62.7157 42.5018 62.7157 41.8807 62.1064C41.2714 61.497 41.2714 60.5127 41.8807 59.8916L50.7983 50.9741C51.4076 50.3648 52.3919 50.3648 53.013 50.9741L58.544 56.5051L71.2816 43.7674C71.891 43.1581 72.8753 43.1581 73.4964 43.7674L74.7854 45.0564L76.4611 36.7482L68.1529 38.4239L69.02 39.2911C69.6294 39.9004 69.6294 40.8848 69.02 41.5058L59.6572 50.8687C59.3643 51.1616 58.9658 51.3257 58.5557 51.3257C58.1456 51.3257 57.7472 51.1616 57.4542 50.8687L51.9232 45.3377L23.284 73.9769L25.5573 76.2502L33.0687 68.7389C33.678 68.1295 34.6623 68.1295 35.2834 68.7389C35.8928 69.3482 35.8928 70.3325 35.2834 70.9536L26.6705 79.5665C26.3659 79.8711 25.9675 80.0235 25.569 80.0235L25.5222 80Z" fill="#010B29"/>
<path d="M41.0722 14.261C37.1349 14.261 33.9358 11.062 33.9358 7.12465C33.9358 3.18734 37.1349 0 41.0722 0C45.0095 0 48.2085 3.19906 48.2085 7.13637C48.2085 11.0737 45.0095 14.2727 41.0722 14.2727V14.261ZM41.0722 3.11704C38.8574 3.11704 37.0645 4.90992 37.0645 7.12465C37.0645 9.33939 38.8574 11.1323 41.0722 11.1323C43.2869 11.1323 45.0798 9.33939 45.0798 7.12465C45.0798 4.90992 43.2869 3.11704 41.0722 3.11704Z" fill="#010B29"/>
<path d="M18.9951 66.3249C18.7842 66.3249 18.5733 66.3132 18.3506 66.278H18.2803C16.8624 66.0788 15.632 65.2586 14.9055 64.0281C14.1789 62.7977 14.05 61.333 14.5539 59.9971L15.5148 57.4777C15.8195 56.6691 16.7218 56.2707 17.5303 56.5754C18.3389 56.8801 18.7373 57.7824 18.4326 58.5909L17.4717 61.1103C17.3077 61.5439 17.3428 62.0361 17.5889 62.4345C17.8233 62.8329 18.2334 63.1024 18.7022 63.1727H18.7725C19.4521 63.2782 20.1201 62.9266 20.4247 62.329C23.4832 56.2707 32.5413 38.3536 32.6351 38.1661C32.9046 37.6388 33.4436 37.3107 34.0295 37.3107H37.7325C38.1895 37.3107 38.6231 37.5099 38.916 37.8615C39.209 38.213 39.3379 38.67 39.2676 39.127L37.3809 50.9975C37.2989 51.5248 37.5333 51.8998 37.6856 52.0756C37.8379 52.2514 38.166 52.5443 38.6934 52.5443C39.2207 52.5443 39.8183 52.1459 39.9824 51.5717L43.533 38.8106C43.8845 37.5333 43.6267 36.1975 42.8299 35.1428C42.033 34.0882 40.8144 33.4789 39.4902 33.4789H37.8028C36.9356 33.4789 36.2443 32.7758 36.2443 31.9203C36.2443 31.0649 36.9474 30.3618 37.8028 30.3618H39.4902C41.7987 30.3618 43.9314 31.4165 45.3259 33.2562C46.7203 35.096 47.1656 37.4279 46.5445 39.6543L42.9939 52.4154C42.4549 54.3372 40.6972 55.6731 38.7051 55.6731C36.713 55.6731 36.1622 55.0989 35.3185 54.1146C34.4748 53.1302 34.0998 51.8061 34.3108 50.5171L35.9162 40.4512H35.0021C33.1507 44.1072 25.8971 58.462 23.2254 63.7469C22.4168 65.3523 20.7763 66.3366 19.0068 66.3366L18.9951 66.3249Z" fill="#010B29"/>
<path d="M21.4326 47.9156C21.2451 47.9156 21.0576 47.8804 20.8818 47.8101C20.0733 47.5054 19.6749 46.6031 19.9795 45.7946L25.4871 31.3461C25.7918 30.5375 26.6941 30.1391 27.5026 30.4438C28.3112 30.7484 28.7096 31.6507 28.4049 32.4593L22.8974 46.9078C22.663 47.5289 22.0654 47.9156 21.4326 47.9156Z" fill="#010B29"/>
<path d="M15.1516 45.7947C14.1907 45.7947 13.2884 45.4197 12.6088 44.7401L1.05464 33.1977C-0.351545 31.7915 -0.351545 29.5181 1.05464 28.112L9.43313 19.7335C10.8393 18.3273 13.1126 18.3273 14.5188 19.7335L26.0612 31.2759C26.7409 31.9555 27.1159 32.8578 27.1159 33.8187C27.1159 34.7796 26.7409 35.6819 26.0612 36.3616L17.6827 44.7401C17.0031 45.4197 16.1008 45.7947 15.1399 45.7947H15.1516ZM11.9877 21.8076C11.8705 21.8076 11.7533 21.8545 11.6596 21.9482L3.28109 30.3267C3.0936 30.5142 3.0936 30.8071 3.28109 30.9946L14.8235 42.537C14.9407 42.6542 15.0696 42.6777 15.1516 42.6777C15.2336 42.6777 15.3743 42.6542 15.4797 42.537L23.8582 34.1585C23.9754 34.0414 23.9988 33.9125 23.9988 33.8304C23.9988 33.7484 23.9754 33.6078 23.8582 33.5023L12.3158 21.9599C12.2221 21.8662 12.1049 21.8193 11.9877 21.8193V21.8076Z" fill="#010B29"/>
<path d="M11.6127 31.8501C11.2143 31.8501 10.8159 31.6977 10.5112 31.3931L5.24973 26.1316C4.64039 25.5222 4.64039 24.5379 5.24973 23.9169C5.85908 23.2958 6.84341 23.3075 7.46447 23.9169L12.7259 29.1783C13.3353 29.7877 13.3353 30.772 12.7259 31.3931C12.1166 32.0141 12.0228 31.8501 11.6244 31.8501H11.6127Z" fill="#010B29"/>
<path d="M20.3897 40.6269C19.9913 40.6269 19.5928 40.4746 19.2882 40.1699L14.0267 34.9084C13.4174 34.2991 13.4174 33.3148 14.0267 32.6937C14.6361 32.0727 15.6204 32.0844 16.2414 32.6937L21.5029 37.9552C22.1123 38.5645 22.1123 39.5488 21.5029 40.1699C21.1982 40.4746 20.7998 40.6269 20.4014 40.6269H20.3897Z" fill="#010B29"/>
<path d="M13.3704 36.2326C12.3744 36.2326 11.4486 35.8459 10.7455 35.1428L10.2651 34.6623C8.82375 33.221 8.82375 30.8657 10.2651 29.4126L12.2572 27.4205C12.8665 26.8112 13.8508 26.8112 14.4719 27.4205L17.9874 30.936C18.5967 31.5453 18.5967 32.5296 17.9874 33.1507L15.9953 35.1428C15.2922 35.8459 14.3664 36.2326 13.3704 36.2326ZM13.3704 30.7368L12.4798 31.6273C12.2455 31.8617 12.2455 32.225 12.4798 32.4593L12.9603 32.9398C13.1126 33.0921 13.2884 33.1155 13.3704 33.1155C13.4524 33.1155 13.6399 33.0921 13.7805 32.9398L14.6711 32.0492L13.3587 30.7368H13.3704Z" fill="#010B29"/>
<path d="M38.5879 66.9928C38.5411 66.9928 38.4825 66.9928 38.4356 66.9928C38.3887 66.9928 38.3301 66.981 38.2833 66.9693C38.1778 66.9459 38.0841 66.9225 37.9903 66.8756C37.8966 66.8404 37.8028 66.7818 37.7208 66.735C37.6739 66.7115 37.6388 66.6764 37.6036 66.6412C37.5685 66.6061 37.5216 66.5709 37.4864 66.5358C37.4513 66.5006 37.4161 66.4654 37.381 66.4186C37.3458 66.3834 37.3224 66.3365 37.2872 66.3014C37.2286 66.2194 37.1818 66.1256 37.1466 66.0319C37.1114 65.9381 37.0763 65.8444 37.0529 65.7389C37.0529 65.692 37.0411 65.6335 37.0294 65.5866C37.0294 65.5397 37.0294 65.4811 37.0294 65.4343C37.0294 65.3874 37.0294 65.3288 37.0294 65.2819C37.0294 65.235 37.0411 65.1764 37.0529 65.1296C37.0763 65.0358 37.0997 64.9304 37.1466 64.8366C37.1818 64.7429 37.2403 64.6491 37.2872 64.5671C37.3107 64.5202 37.3458 64.4851 37.381 64.4382C37.4161 64.4031 37.4513 64.3562 37.4864 64.321C37.5216 64.2859 37.5567 64.2507 37.6036 64.2156C37.6388 64.1804 37.6856 64.157 37.7208 64.1218C37.8028 64.0632 37.8966 64.0163 37.9903 63.9812C38.0841 63.946 38.1778 63.9109 38.2833 63.8875C38.3301 63.8875 38.3887 63.864 38.4356 63.864C38.5411 63.864 38.6465 63.864 38.7403 63.864C38.7871 63.864 38.8457 63.8757 38.8926 63.8875C38.9981 63.9109 39.0918 63.9343 39.1856 63.9812C39.2793 64.0163 39.3731 64.0632 39.4551 64.1218C39.502 64.1453 39.5371 64.1804 39.584 64.2156C39.6191 64.2507 39.666 64.2859 39.7012 64.321C39.7363 64.3562 39.7715 64.3913 39.8066 64.4382C39.8418 64.4734 39.8652 64.5202 39.9004 64.5671C39.959 64.6491 40.0058 64.7429 40.041 64.8366C40.0761 64.9304 40.1113 65.0241 40.1347 65.1296C40.1347 65.1764 40.1582 65.235 40.1582 65.2819C40.1582 65.3288 40.1582 65.3874 40.1582 65.4343C40.1582 65.4811 40.1582 65.5397 40.1582 65.5866C40.1582 65.6335 40.1465 65.692 40.1347 65.7389C40.1113 65.8444 40.0879 65.9381 40.041 66.0319C40.0058 66.1256 39.959 66.2194 39.9004 66.3014C39.8769 66.3483 39.8418 66.3834 39.8066 66.4186C39.7715 66.4537 39.7363 66.5006 39.7012 66.5358C39.666 66.5709 39.6309 66.6061 39.584 66.6412C39.5488 66.6764 39.502 66.6998 39.4551 66.735C39.3731 66.7936 39.2793 66.8404 39.1856 66.8756C39.0918 66.9107 38.9981 66.9459 38.8926 66.9693C38.8457 66.9693 38.7871 66.9811 38.7403 66.9928C38.6934 66.9928 38.6348 66.9928 38.5879 66.9928Z" fill="#010B29"/>
<path d="M19.1944 53.763C19.1475 53.763 19.0889 53.763 19.042 53.763C18.9952 53.763 18.9366 53.7513 18.8897 53.7396C18.7842 53.7162 18.6905 53.6927 18.5968 53.6458C18.503 53.6107 18.4093 53.5638 18.3272 53.5052C18.2804 53.4818 18.2452 53.4466 18.1983 53.4115C18.1632 53.3763 18.1163 53.3412 18.0812 53.306C18.046 53.2709 18.0108 53.2357 17.9757 53.1888C17.9405 53.1537 17.9171 53.1068 17.8819 53.0717C17.8234 52.9896 17.7765 52.8959 17.7413 52.8021C17.7062 52.7084 17.671 52.6146 17.6476 52.5092C17.6476 52.4623 17.6241 52.4037 17.6241 52.3568C17.6241 52.31 17.6241 52.2514 17.6241 52.2045C17.6241 52.1576 17.6241 52.0991 17.6241 52.0522C17.6241 52.0053 17.6359 51.9467 17.6476 51.8998C17.671 51.8061 17.6945 51.7006 17.7413 51.6069C17.7765 51.5131 17.8234 51.4194 17.8819 51.3374C17.9054 51.2905 17.9405 51.2553 17.9757 51.2202C18.0108 51.185 18.046 51.1382 18.0812 51.103C18.1163 51.0678 18.1515 51.0327 18.1983 50.9975C18.2335 50.9624 18.2804 50.9389 18.3272 50.9038C18.4093 50.8452 18.503 50.7983 18.5968 50.7632C18.6905 50.728 18.7842 50.6929 18.8897 50.6694C18.9366 50.6694 18.9952 50.646 19.042 50.646C19.1475 50.646 19.253 50.646 19.3467 50.646C19.3936 50.646 19.4522 50.6577 19.4991 50.6694C19.6045 50.6929 19.6983 50.7163 19.792 50.7632C19.8858 50.7983 19.9795 50.8569 20.0615 50.9038C20.1084 50.9272 20.1436 50.9624 20.1787 50.9975C20.2139 51.0327 20.2607 51.0678 20.2959 51.103C20.331 51.1382 20.3662 51.1733 20.4014 51.2202C20.4365 51.2553 20.4599 51.3022 20.4951 51.3374C20.5537 51.4194 20.6006 51.5131 20.6357 51.6069C20.6709 51.7006 20.706 51.8061 20.7295 51.8998C20.7295 51.9467 20.7412 52.0053 20.7529 52.0522C20.7529 52.0991 20.7529 52.1576 20.7529 52.2045C20.7529 52.2514 20.7529 52.31 20.7529 52.3568C20.7529 52.4037 20.7412 52.4623 20.7295 52.5092C20.706 52.6146 20.6826 52.7084 20.6357 52.8021C20.6006 52.8959 20.542 52.9896 20.4951 53.0717C20.4717 53.1185 20.4365 53.1537 20.4014 53.1888C20.3662 53.224 20.331 53.2709 20.2959 53.306C20.2607 53.3412 20.2256 53.3763 20.1787 53.4115C20.1436 53.4466 20.0967 53.4701 20.0615 53.5052C19.9795 53.5638 19.8858 53.6107 19.792 53.6458C19.6983 53.681 19.6045 53.7162 19.4991 53.7396C19.4522 53.7396 19.3936 53.763 19.3467 53.763C19.2998 53.763 19.2413 53.763 19.1944 53.763Z" fill="#010B29"/>
</g>
</g>
<defs>
<clipPath id="clip0_28_1559">
<rect width="80" height="80" fill="white"/>
</clipPath>
</defs>
</svg>
