<svg width="40" height="38" viewBox="0 0 40 38" fill="none" xmlns="http://www.w3.org/2000/svg">
<path d="M34.3331 0.901245H5.66645C3.03151 0.901245 0.888672 2.93824 0.888672 5.44303V32.6938C0.888672 35.1986 3.03151 37.2355 5.66645 37.2355H34.3331C36.9681 37.2355 39.1109 35.1986 39.1109 32.6938V5.44303C39.1109 2.93824 36.9681 0.901245 34.3331 0.901245Z" fill="#1976D2"/>
<path d="M33.1388 19.0685H27.1666V14.5267C27.1666 13.2731 28.2368 13.3912 29.5555 13.3912H31.9444V7.71399H27.1666C23.2082 7.71399 19.9999 10.7638 19.9999 14.5267V19.0685H15.2222V24.7457H19.9999V37.2356H27.1666V24.7457H30.7499L33.1388 19.0685Z" fill="#FAFAFA"/>
</svg>
