<svg width="80" height="66" viewBox="0 0 80 66" fill="none" xmlns="http://www.w3.org/2000/svg">
<path d="M76.9535 15.1577L44.4908 1.24477C41.6368 0.0216989 38.3616 0.0226566 35.5041 1.24717L3.04842 15.1569C1.16816 15.9625 0 17.7337 0 19.7792C0 21.8236 1.16736 23.5939 3.04651 24.3992L6.88302 26.0435C6.87903 26.0831 6.87695 26.1233 6.87695 26.1639V44.319C5.394 44.82 4.3229 46.2234 4.3229 47.8733C4.3229 48.8298 4.68334 49.7035 5.27476 50.3669C4.6206 51.0081 4.18625 51.8775 4.09654 52.8625L3.1774 62.9737C3.11467 63.6644 3.34693 64.354 3.81448 64.8661C4.28203 65.3782 4.948 65.6719 5.64143 65.6719H10.5067C11.2002 65.6719 11.8661 65.3782 12.3337 64.8661C12.8014 64.354 13.0335 63.6643 12.9708 62.9737L12.0516 52.8625C11.9621 51.8776 11.5276 51.0083 10.8734 50.3669C11.4648 49.7036 11.8253 48.83 11.8253 47.8733C11.8253 46.2236 10.7542 44.8201 9.27122 44.319V27.0671L15.822 29.8746C15.8181 29.9142 15.816 29.9543 15.816 29.9948V39.1356C15.816 42.9506 18.4281 46.4798 23.1715 49.0734C27.6861 51.5419 33.6626 52.9015 39.9997 52.9015C46.3368 52.9015 52.3133 51.5419 56.8279 49.0734C61.5711 46.4798 64.1834 42.9506 64.1834 39.1356V29.9948C64.1834 29.9543 64.1813 29.9142 64.1773 29.8748L76.9514 24.4001C78.8317 23.5943 79.9998 21.8229 79.9998 19.7776C80 17.7333 78.8326 15.963 76.9535 15.1577ZM10.5656 63.2515C10.542 63.2775 10.5163 63.2775 10.5067 63.2775H5.64143C5.63169 63.2775 5.60615 63.2775 5.58252 63.2515C5.55874 63.2254 5.56113 63.2001 5.56193 63.1905L6.48107 53.0793C6.55658 52.25 7.24138 51.6246 8.07416 51.6246C8.90679 51.6246 9.59159 52.25 9.6671 53.0793L10.5862 63.1903C10.5872 63.2001 10.5894 63.2254 10.5656 63.2515ZM8.07416 49.2302C7.32599 49.2302 6.71732 48.6215 6.71732 47.8733C6.71732 47.1252 7.32599 46.5165 8.07416 46.5165C8.82234 46.5165 9.43101 47.1252 9.43101 47.8733C9.43101 48.6215 8.82234 49.2302 8.07416 49.2302ZM61.7891 34.0276C61.7891 37.1235 59.2411 40.146 54.7985 42.3203C54.2045 42.611 53.9589 43.3281 54.2495 43.9219C54.4572 44.3465 54.883 44.5931 55.3258 44.5931C55.5025 44.5931 55.6817 44.5539 55.8513 44.4709C58.3154 43.2649 60.2897 41.7956 61.6973 40.162C61.2485 42.6867 59.1521 45.0739 55.6795 46.9727C51.511 49.252 45.9426 50.5072 40 50.5072C34.0574 50.5072 28.489 49.252 24.3205 46.9727C20.8606 45.0808 18.7662 42.7039 18.3071 40.1893C19.5173 41.5843 21.1501 42.8601 23.1717 43.9655C27.6863 46.434 33.6628 47.7935 39.9998 47.7935C41.7727 47.7935 43.5409 47.6856 45.2553 47.473C45.9115 47.3916 46.3775 46.7938 46.2961 46.1375C46.2147 45.4813 45.6176 45.0152 44.9606 45.0968C43.3436 45.2974 41.6745 45.3991 39.9998 45.3991C34.0572 45.3991 28.4889 44.1439 24.3203 41.8646C20.3804 39.7103 18.2106 36.9271 18.2106 34.0276V30.8983L35.5092 38.3122C36.9353 38.9235 38.4665 39.229 39.9984 39.229C41.5321 39.229 43.0665 38.9227 44.4959 38.31L61.7891 30.8986V34.0276ZM76.0083 22.1993L43.5525 36.1089C41.2948 37.0766 38.7069 37.0774 36.4524 36.1113L11.6478 25.4805L34.3755 21.5278C35.3978 22.7376 37.4811 23.5299 39.9998 23.5299C43.5945 23.5299 46.3052 21.9171 46.3052 19.7786C46.3052 17.64 43.5945 16.0273 39.9998 16.0273C36.7351 16.0273 34.1999 17.3577 33.762 19.2039L7.86904 23.707C7.79306 23.7203 7.72043 23.7409 7.65083 23.7672L3.98991 22.1981C2.9908 21.7703 2.39443 20.8658 2.39443 19.7792C2.39443 18.6915 2.9916 17.7861 3.99167 17.3575L36.4473 3.4478C37.5773 2.96365 38.7897 2.72149 40.0018 2.72149C41.2117 2.72149 42.4214 2.96285 43.5476 3.44541L76.0103 17.3583C77.0092 17.7864 77.6056 18.6909 77.6056 19.7775C77.6056 20.8655 77.0084 21.7707 76.0083 22.1993ZM36.0889 19.7787C36.0889 19.43 37.4337 18.4219 39.9998 18.4219C42.566 18.4219 43.9107 19.43 43.9107 19.7787C43.9107 20.1275 42.566 21.1356 39.9998 21.1356C37.4337 21.1356 36.0889 20.1274 36.0889 19.7787Z" fill="#010B29"/>
</svg>
