<svg width="39" height="38" viewBox="0 0 39 38" fill="none" xmlns="http://www.w3.org/2000/svg">
<path d="M2.50041 3.43159C-0.503222 6.39738 0.111519 9.54786 0.111519 19.1189C0.111519 27.0671 -1.3473 35.0349 6.28759 36.9106C8.67171 37.4935 29.7959 37.4935 32.1768 36.9076C35.3556 36.1279 37.942 33.6769 38.2955 29.403C38.3449 28.8066 38.3449 9.44189 38.2939 8.83329C37.9181 4.2809 34.9702 1.65727 31.0859 1.12588C30.1956 1.00325 30.0172 0.966914 25.4497 0.959344C9.24822 0.966914 5.69674 0.281104 2.50041 3.43159Z" fill="url(#paint0_linear_35_1764)"/>
<path d="M19.2194 5.71162C13.4367 5.71162 7.94545 5.22262 5.848 10.3397C4.98163 12.4531 5.10745 15.1979 5.10745 19.1281C5.10745 22.5768 4.99119 25.8181 5.848 27.9149C7.94067 33.035 13.4765 32.5445 19.2162 32.5445C24.7537 32.5445 30.4631 33.0925 32.586 27.9149C33.454 25.7803 33.3266 23.0764 33.3266 19.1281C33.3266 13.8868 33.6308 10.5032 30.9568 7.96283C28.2494 5.38915 24.588 5.71162 19.213 5.71162H19.2194ZM17.9549 8.12936C30.0172 8.11119 31.5524 6.83647 30.7052 24.5449C30.4042 30.808 25.3875 30.1207 19.221 30.1207C7.9773 30.1207 7.654 29.8149 7.654 19.122C7.654 8.30498 8.54586 8.13542 17.9549 8.12633V8.12936ZM26.7524 10.3564C25.8175 10.3564 25.0594 11.077 25.0594 11.9657C25.0594 12.8543 25.8175 13.575 26.7524 13.575C27.6872 13.575 28.4453 12.8543 28.4453 11.9657C28.4453 11.077 27.6872 10.3564 26.7524 10.3564ZM19.2194 12.2382C15.2172 12.2382 11.9731 15.3236 11.9731 19.1281C11.9731 22.9326 15.2172 26.0164 19.2194 26.0164C23.2216 26.0164 26.4641 22.9326 26.4641 19.1281C26.4641 15.3236 23.2216 12.2382 19.2194 12.2382ZM19.2194 14.6559C25.4385 14.6559 25.4464 23.6002 19.2194 23.6002C13.0019 23.6002 12.9924 14.6559 19.2194 14.6559Z" fill="white"/>
<defs>
<linearGradient id="paint0_linear_35_1764" x1="2.5737" y1="34.9729" x2="36.546" y2="4.04255" gradientUnits="userSpaceOnUse">
<stop stop-color="#FFDD55"/>
<stop offset="0.5" stop-color="#FF543E"/>
<stop offset="1" stop-color="#C837AB"/>
</linearGradient>
</defs>
</svg>
