<svg width="39" height="38" viewBox="0 0 39 38" fill="none" xmlns="http://www.w3.org/2000/svg">
<path d="M35.5425 0.901245H4.23534C2.32583 0.901245 0.777832 2.37278 0.777832 4.18798V33.9487C0.777832 35.764 2.32583 37.2355 4.23534 37.2355H35.5424C37.4521 37.2355 39.0001 35.764 39.0001 33.9487V4.18798C39.0001 2.37278 37.4521 0.901245 35.5425 0.901245ZM12.6054 32.2747C12.6054 32.8029 12.1549 33.2312 11.5992 33.2312H7.31613C6.76041 33.2312 6.30995 32.8029 6.30995 32.2747V15.207C6.30995 14.6787 6.76041 14.2505 7.31613 14.2505H11.5992C12.1549 14.2505 12.6054 14.6787 12.6054 15.207V32.2747ZM9.45768 12.6416C7.21047 12.6416 5.38871 10.9098 5.38871 8.77361C5.38871 6.6374 7.21047 4.90563 9.45768 4.90563C11.7049 4.90563 13.5266 6.6374 13.5266 8.77361C13.5266 10.9098 11.705 12.6416 9.45768 12.6416ZM34.9887 32.3517C34.9887 32.8374 34.5745 33.2312 34.0636 33.2312H29.4675C28.9566 33.2312 28.5424 32.8374 28.5424 32.3517V24.346C28.5424 23.1517 28.9109 19.1126 25.2592 19.1126C22.4266 19.1126 21.8521 21.8773 21.7367 23.118V32.3517C21.7367 32.8374 21.3226 33.2312 20.8116 33.2312H16.3664C15.8555 33.2312 15.4413 32.8374 15.4413 32.3517V15.1299C15.4413 14.6443 15.8555 14.2505 16.3664 14.2505H20.8116C21.3225 14.2505 21.7367 14.6443 21.7367 15.1299V16.619C22.787 15.1206 24.3479 13.9641 27.6714 13.9641C35.0308 13.9641 34.9887 20.5001 34.9887 24.0913V32.3517Z" fill="#0077B7"/>
</svg>
