<svg width="28" height="28" viewBox="0 0 28 28" fill="none" xmlns="http://www.w3.org/2000/svg">
<g clip-path="url(#clip0_31_1026)">
<path d="M14 0C6.28015 0 0 6.28015 0 14C0 21.7199 6.28015 28 14 28C21.7199 28 28 21.7199 28 14C28 6.28015 21.7199 0 14 0ZM19.8334 19.8334H8.16665C7.5215 19.8334 7 19.3107 7 18.6667C7 18.0227 7.5215 17.5001 8.16665 17.5001H19.8333C20.4784 17.5001 20.9999 18.0227 20.9999 18.6667C21 19.3106 20.4785 19.8334 19.8334 19.8334ZM19.8334 15.1666H8.16665C7.5215 15.1666 7 14.644 7 14C7 13.356 7.5215 12.8334 8.16665 12.8334H19.8333C20.4784 12.8334 20.9999 13.356 20.9999 14C20.9999 14.644 20.4785 15.1666 19.8334 15.1666ZM19.8334 10.5H8.16665C7.5215 10.5 7 9.97735 7 9.33335C7 8.68935 7.5215 8.1667 8.16665 8.1667H19.8333C20.4784 8.1667 20.9999 8.68935 20.9999 9.33335C20.9999 9.97735 20.4785 10.5 19.8334 10.5Z" fill="#010B29"/>
</g>
<defs>
<clipPath id="clip0_31_1026">
<rect width="28" height="28" fill="white"/>
</clipPath>
</defs>
</svg>
